HIERARCHY
ROOT Hips
{
	OFFSET	0.00	0.00	0.00
	CHANNELS 6 Xposition Yposition Zposition Zrotation Xrotation Yrotation
	JOINT LeftUpLeg
	{
		OFFSET	 0.126116	-0.014019	-0.065224
		CHANNELS 3 Zrotation Xrotation Yrotation
		JOINT LeftLeg
		{
			OFFSET	 0.000000	 0.000000	 0.569914
			CHANNELS 3 Zrotation Xrotation Yrotation
			JOINT LeftFoot
			{
				OFFSET	 0.000000	 0.000000	 0.544423
				CHANNELS 3 Zrotation Xrotation Yrotation
				JOINT LeftToeBase
				{
					OFFSET	 0.000000	 0.000000	 0.207117
					CHANNELS 3 Zrotation Xrotation Yrotation
					End Site
					{
						OFFSET	 0.000000	 0.000000	 0.207117
					}
				}
			}
		}
	}
	JOINT RightUpLeg
	{
		OFFSET	-0.124023	-0.008373	-0.065224
		CHANNELS 3 Zrotation Xrotation Yrotation
		JOINT RightLeg
		{
			OFFSET	 0.000000	 0.000000	 0.570047
			CHANNELS 3 Zrotation Xrotation Yrotation
			JOINT RightFoot
			{
				OFFSET	 0.000000	 0.000000	 0.544354
				CHANNELS 3 Zrotation Xrotation Yrotation
				JOINT RightToeBase
				{
					OFFSET	 0.000000	 0.000000	 0.207540
					CHANNELS 3 Zrotation Xrotation Yrotation
					End Site
					{
						OFFSET	 0.000000	 0.000000	 0.207540
					}
				}
			}
		}
	}
	JOINT Spine
	{
		OFFSET	 0.000184	-0.007763	 0.117403
		CHANNELS 3 Zrotation Xrotation Yrotation
		JOINT Spine1
		{
			OFFSET	 0.000000	 0.000000	 0.137269
			CHANNELS 3 Zrotation Xrotation Yrotation
			JOINT Spine2
			{
				OFFSET	 0.000000	 0.000000	 0.156879
				CHANNELS 3 Zrotation Xrotation Yrotation
				JOINT LeftShoulder
				{
					OFFSET	 0.080501	-0.002496	 0.160144
					CHANNELS 3 Zrotation Xrotation Yrotation
					JOINT LeftArm
					{
						OFFSET	 0.000000	 0.000000	 0.164363
						CHANNELS 3 Zrotation Xrotation Yrotation
						JOINT LeftForeArm
						{
							OFFSET	 0.000000	 0.000000	 0.364576
							CHANNELS 3 Zrotation Xrotation Yrotation
							JOINT LeftHand
							{
								OFFSET	 0.000000	 0.000000	 0.360812
								CHANNELS 3 Zrotation Xrotation Yrotation
								JOINT LeftHandIndex1
								{
									OFFSET	 0.000000	 0.000000	 0.086006
									CHANNELS 3 Zrotation Xrotation Yrotation
									JOINT LeftHandIndex2
									{
										OFFSET	 0.000000	 0.000000	 0.047236
										CHANNELS 3 Zrotation Xrotation Yrotation
										JOINT LeftHandIndex3
										{
											OFFSET	-0.004284	-0.000551	 0.038166
											CHANNELS 3 Zrotation Xrotation Yrotation
											End Site
											{
												OFFSET	-0.004284	-0.000551	 0.038166
											}
										}
									}
								}
							}
						}
					}
				}
				JOINT Neck
				{
					OFFSET	 0.000000	 0.000000	 0.176489
					CHANNELS 3 Zrotation Xrotation Yrotation
					JOINT Head
					{
						OFFSET	 0.000000	-0.001747	 0.077940
						CHANNELS 3 Zrotation Xrotation Yrotation
						End Site
						{
							OFFSET	 0.000000	-0.001747	 0.077940
						}
					}
				}
				JOINT RightShoulder
				{
					OFFSET	-0.080363	 0.000306	 0.159706
					CHANNELS 3 Zrotation Xrotation Yrotation
					JOINT RightArm
					{
						OFFSET	 0.000000	 0.000000	 0.164196
						CHANNELS 3 Zrotation Xrotation Yrotation
						JOINT RightForeArm
						{
							OFFSET	 0.000000	 0.000000	 0.365611
							CHANNELS 3 Zrotation Xrotation Yrotation
							JOINT RightHand
							{
								OFFSET	 0.000000	 0.000000	 0.360648
								CHANNELS 3 Zrotation Xrotation Yrotation
								JOINT RightHandIndex1
								{
									OFFSET	 0.000000	 0.000000	 0.069977
									CHANNELS 3 Zrotation Xrotation Yrotation
									JOINT RightHandIndex2
									{
										OFFSET	 0.000000	 0.000000	 0.052305
										CHANNELS 3 Zrotation Xrotation Yrotation
										JOINT RightHandIndex3
										{
											OFFSET	 0.009002	-0.000782	 0.042196
											CHANNELS 3 Zrotation Xrotation Yrotation
											End Site
											{
												OFFSET	 0.009002	-0.000782	 0.042196
											}
										}
									}
								}
							}
						}
					}
				}
			}
		}
	}
}
MOTION
Frames:    9
Frame Time: 0.03333334
 0.013364	 0.055640	 1.201512	 5.645844	-0.523880	-2.770612	-5.948705	-14.109320	-171.058300	 1.252359	-39.088540	 0.567270	 45.934830	 80.207380	-50.221930	-2.368525	 31.760750	-0.073225	-1.702671	-30.785320	-175.773600	 12.200320	-51.794760	 10.249100	 61.194610	 82.358330	-59.485810	 2.359010	 32.994660	 0.103094	-6.700347	 8.024976	 1.831738	-1.913428	 1.830374	-1.154200	 2.961254	-2.708217	 1.451918	-94.109700	 58.980970	 175.021000	 27.306650	 45.617550	-17.399830	-2.322534	-2.908424	-30.003300	-0.170226	-18.336950	-8.457026	-4.864897	 19.377590	-2.799791	-3.869958	 21.620540	 2.190993	-4.804305	 5.592127	 0.144238	-0.039190	-5.104795	 0.230970	 0.933593	 1.482732	 2.591695	 89.715330	 61.759660	 179.840100	-19.387500	 52.757740	 11.990380	-2.287515	-1.586078	 7.654019	-5.038030	-2.895159	 0.334042	 6.277064	 23.605360	-0.550872	 2.035830	 43.455830	-7.126643	 0.787689	 23.117610	 3.437939
 0.012982	 0.044791	 1.200760	 6.176474	 0.129780	-2.980290	-6.413058	-14.263060	-170.934200	 1.483258	-38.980160	 0.711223	 46.021110	 80.277510	-50.478470	-2.366825	 32.035550	-0.079488	-2.730772	-32.461330	-175.427900	 13.068780	-50.497800	 10.752690	 100.249100	 81.166500	-100.048200	 2.360147	 32.824760	 0.099159	-6.815790	 7.423867	 1.747292	-1.810282	 1.948365	-0.809751	 2.626191	-3.226576	 1.242847	-94.274570	 58.990210	 174.668100	 27.874510	 44.924660	-17.426830	-2.832883	-2.807195	-31.827100	 0.053799	-18.933890	-8.524851	-4.854653	 19.618670	-2.811439	-3.857470	 21.779400	 2.178305	-4.798833	 5.656600	 0.140459	-0.014112	-5.148159	 0.283163	 0.669707	 1.226398	 2.513215	 89.624080	 61.884750	 179.620100	-18.787650	 53.219990	 10.467420	-3.105022	-1.819163	 8.178382	-5.460111	-2.463554	-0.204970	 6.254818	 22.202110	-0.587729	 2.176375	 42.236350	-7.250577	 1.099031	 21.707150	 3.288472
 0.012273	 0.009793	 1.198652	 6.571688	 0.969703	-3.641194	-6.797887	-12.966560	-170.397900	 1.722096	-38.095920	 0.844971	 46.886120	 80.427940	-51.560410	-2.357894	 33.390080	-0.110742	-1.198507	-35.280550	-173.790400	 12.710110	-45.739440	 9.732422	 130.713900	 71.461980	-132.332700	 2.351506	 34.053180	 0.127915	-6.641606	 6.258680	 1.914171	-1.514981	 3.258275	-0.065379	 1.811096	-4.536690	 0.695539	-94.481770	 58.959700	 174.231400	 27.605900	 43.032340	-17.807280	-4.009491	-2.414013	-35.859970	-0.225256	-19.832590	-7.612652	-4.823398	 20.263510	-2.822949	-3.822389	 22.222020	 2.142677	-4.768415	 6.013831	 0.119407	 0.026280	-5.288518	 0.345406	-0.079831	 0.726603	 2.377973	 89.434690	 62.055510	 179.159300	-17.147080	 54.036310	 6.742906	-5.311428	-2.455710	 9.300528	-6.544583	-1.861595	-2.280037	 6.191368	 18.821170	-0.718654	 2.562300	 38.583600	-7.585799	 1.822926	 18.301890	 2.966536
 0.010074	-0.035357	 1.195473	 6.959006	 0.972187	-3.871078	-7.536694	-10.077140	-170.293900	 2.152080	-36.919250	 1.081082	 40.631760	 79.507600	-45.551410	-2.322747	 37.644920	-0.214208	-0.011005	-36.117130	-172.556600	 12.105460	-38.041080	 8.010083	 116.449500	 71.891880	-119.098100	 2.336236	 35.969870	 0.174111	-6.835357	 6.167287	 1.899335	-1.185503	 4.342135	 0.519187	 0.905706	-5.836138	 0.130450	-94.537700	 59.002670	 174.105300	 25.487660	 41.521000	-18.377870	-4.159196	-2.533295	-38.458040	-0.921413	-21.513690	-8.258185	-4.854736	 20.531880	-3.083644	-3.782590	 22.718030	 2.102258	-4.711168	 6.681338	 0.079513	 0.128611	-5.423028	 0.329347	-0.802507	 0.451176	 1.947631	 89.357580	 61.870450	 178.979800	-15.317410	 54.367960	 2.475115	-6.968853	-2.980772	 10.071070	-6.878515	-2.528427	-4.093450	 6.169955	 15.630490	-0.611652	 2.911374	 34.848130	-7.881407	 2.465825	 15.136910	 2.712632
 0.004434	-0.090849	 1.189449	 7.329360	 0.617875	-3.129943	-8.289603	-6.211330	-171.339000	 2.053612	-36.070920	 1.001655	 26.972510	 75.760060	-31.370010	-2.189861	 47.379050	-0.494677	 1.255744	-35.316980	-172.403400	 7.724342	-28.198680	 4.031014	 58.667990	 75.868610	-57.975100	 2.340382	 35.476150	 0.162049	-7.137563	 6.144562	 1.035139	-0.761180	 6.016239	 1.167611	-0.272233	-6.977567	-0.696005	-94.467540	 59.335850	 174.200000	 23.024130	 40.242520	-20.176700	-4.406014	-2.439901	-39.671250	-1.897840	-22.942820	-8.873172	-4.890134	 20.691670	-3.339562	-3.756096	 23.044640	 2.075353	-4.637043	 7.536080	 0.027364	 0.243365	-5.476949	 0.249146	-1.648630	 0.400490	 1.864608	 89.354170	 61.471640	 178.986300	-13.805770	 54.169910	-1.418954	-8.272454	-3.456281	 10.745950	-7.545388	-3.648877	-5.343378	 6.253047	 12.419920	-0.061828	 3.108446	 32.535210	-8.044475	 3.050782	 12.151500	 2.509674
-0.002723	-0.148456	 1.178989	 8.651038	-0.421567	-2.067432	-8.113196	-1.432405	-173.164700	-0.331103	-35.645570	-0.398521	 15.104340	 65.476030	-16.257900	-1.871188	 58.840640	-0.975182	 4.199791	-36.049870	-171.364700	 6.378918	-23.869210	 2.900471	 9.516900	 63.777360	-5.295439	 2.334620	 36.156760	 0.178713	-7.810117	 6.451589	-0.123990	-0.389874	 8.387951	 1.698153	-1.854061	-8.025398	-1.658640	-94.375820	 59.055960	 174.441900	 21.023040	 38.730720	-21.860940	-4.831017	-2.223421	-41.471730	-2.034299	-22.162170	-8.498419	-4.889467	 20.967020	-3.427830	-3.727797	 23.390290	 2.046637	-4.558321	 8.432243	-0.028640	 0.380189	-5.400688	 0.287629	-2.689435	 0.682754	 2.055944	 89.188080	 61.368880	 178.598000	-12.636220	 53.823010	-4.267496	-8.585816	-3.884374	 11.820460	-7.904915	-4.917331	-4.680905	 6.348421	 9.620075	 0.409093	 3.327893	 29.769480	-8.222260	 3.474010	 9.935111	 2.380430
-0.012606	-0.214944	 1.165032	 10.132150	-1.167634	-0.772799	-5.445649	 3.888931	-176.590600	 1.428392	-34.628330	 0.611303	 5.439147	 44.707890	-3.201485	-1.157083	 69.754080	-1.835169	 3.018945	-39.451340	-172.239700	 7.068052	-23.853040	 3.181322	 3.479850	 48.543500	 0.177481	 2.357166	 33.263150	 0.109349	-8.129847	 6.562466	-1.039781	-0.343794	 10.442970	 1.241159	-3.659528	-8.738945	-2.281729	-94.185080	 59.575530	 174.771500	 20.132020	 37.883030	-24.355240	-4.190257	-2.930613	-42.855170	-1.261131	-20.792270	-9.207065	-4.799468	 21.327650	-3.012589	-3.657017	 24.241120	 1.974810	-4.496202	 9.130775	-0.073255	 0.379423	-5.350610	 0.213253	-4.083998	 1.079890	 1.977467	 89.011400	 60.612380	 178.227400	-11.793670	 52.761050	-7.470205	-7.058241	-4.404188	 14.615570	-6.626672	-6.549190	-2.770371	 6.382071	 8.720069	 0.553534	 3.388798	 28.964340	-8.270823	 3.660479	 8.945065	 2.328337
-0.024249	-0.312903	 1.151214	 8.602929	-2.027446	 0.609763	 5.356246	 12.852360	 176.555900	-0.201542	-28.023680	-0.260418	 6.909765	 27.141920	 0.121979	-2.374164	 30.790490	-0.051369	 2.782728	-38.465760	-175.740800	 5.076671	-21.511660	 2.145912	 3.520053	 41.860300	 2.208655	 2.374331	 30.483840	 0.045992	-6.577107	 7.121932	-2.077183	-0.487782	 10.440870	 0.992876	-5.219407	-8.447438	-3.157154	-94.035960	 59.729190	 175.072500	 19.087740	 37.922680	-24.988010	-2.953641	-4.146367	-43.279140	-0.614998	-20.669000	-8.731454	-4.727980	 21.961400	-2.781921	-3.570220	 25.258090	 1.886771	-4.414940	 10.033150	-0.132169	 0.257211	-5.406152	 0.170579	-5.833594	 1.163123	 2.088675	 89.120190	 60.272160	 178.494600	-11.780600	 51.926460	-9.497093	-5.402576	-4.206815	 15.566070	-4.762551	-9.141689	-0.825026	 6.406086	 10.421000	 0.641642	 3.264045	 30.595680	-8.170978	 3.531876	 9.628747	 2.363944
-0.032248	-0.400601	 1.143449	 6.758071	-2.882758	 1.162244	 9.647917	 18.236300	 173.147600	-2.724231	-26.547440	-1.376263	 9.901607	 33.419920	-3.933279	-2.381184	 29.449620	-0.021692	 3.557438	-35.416360	-178.931500	 4.630886	-22.559360	 2.072585	 3.055636	 45.490860	 4.350170	 2.374318	 30.485920	 0.046039	-5.240016	 7.758102	-2.480207	-1.006865	 8.939512	 0.668538	-6.065829	-7.380318	-3.344714	-93.952640	 59.470810	 175.290000	 18.867190	 38.584070	-23.284320	-2.259313	-4.888805	-43.762510	-1.005875	-21.478040	-8.012180	-4.636783	 23.198120	-2.607594	-3.499652	 26.064170	 1.815236	-4.306279	 11.219660	-0.211893	 0.136185	-5.312418	 0.074461	-7.118511	 1.087268	 1.961095	 89.392220	 60.269130	 179.113300	-12.517270	 51.722100	-9.828056	-3.850083	-3.732865	 15.512720	-3.311927	-11.539780	 0.041450	 6.384392	 12.995120	 0.527953	 3.034768	 33.418150	-7.983867	 3.196256	 11.394730	 2.463548
